<svg xmlns="http://www.w3.org/2000/svg" viewBox="0 0 64 64" role="img" aria-label="Code Training Lab">
  <defs>
    <linearGradient id="ctl-bg" x1="0" y1="0" x2="1" y2="1">
      <stop offset="0%" stop-color="#0f172a"/>
      <stop offset="100%" stop-color="#020617"/>
    </linearGradient>
  </defs>
  <rect width="64" height="64" rx="14" fill="url(#ctl-bg)"/>
  <rect width="64" height="64" rx="14" fill="none" stroke="#34d399" stroke-opacity="0.35" stroke-width="1.5"/>
  <!-- graduation cap -->
  <path
    fill="#34d399"
    d="M32 14 14 22.5 32 31l18-8.5L32 14zm-14 11.2v8.3c0 4.2 6.2 7.5 14 7.5s14-3.3 14-7.5v-8.3L32 33.7 18 25.2z"
  />
  <circle cx="44" cy="22" r="1.8" fill="#34d399"/>
  <path stroke="#34d399" stroke-width="1.4" stroke-linecap="round" d="M44 22v6"/>
  <!-- code brackets -->
  <path
    fill="none"
    stroke="#34d399"
    stroke-width="2.8"
    stroke-linecap="round"
    stroke-linejoin="round"
    d="M22 36 16 42l6 6M42 36l6 6-6 6"
  />
  <!-- flask -->
  <path
    fill="none"
    stroke="#34d399"
    stroke-width="2.2"
    stroke-linejoin="round"
    d="M32 34v4.5l-5 9.5a3 3 0 0 0 2.6 4.5h4.8a3 3 0 0 0 2.6-4.5L32 38.5V34z"
  />
  <path stroke="#34d399" stroke-width="2" stroke-linecap="round" d="M29 32h6"/>
  <circle cx="30" cy="46" r="1.2" fill="#34d399" opacity="0.85"/>
  <circle cx="34" cy="48" r="1" fill="#34d399" opacity="0.65"/>
</svg>
